#N canvas 633 92 735 614 12;
#X obj 293 289 sigmund~ -hop 4096 pitch env;
#X obj 293 264 adc~;
#X floatatom 293 315 5 0 0 0 pitch - -;
#X obj 200 480 netsend;
#X msg 184 141 connect localhost 13001;
#X floatatom 453 330 5 0 0 0 - - -;
#X obj 179 103 loadbang;
#X msg 256 432 send pitch \$1;
#X msg 453 353 send env \$1;
#X connect 0 0 2 0;
#X connect 0 1 5 0;
#X connect 1 0 0 0;
#X connect 2 0 7 0;
#X connect 4 0 3 0;
#X connect 5 0 8 0;
#X connect 6 0 4 0;
#X connect 7 0 3 0;
#X connect 8 0 3 0;
